# Tiled2Unity generated file. Do not modify by hand.
# Wavefront file for 'BarberMapRough_mesh_0005.obj'

# Vertices (Count = 64)
v -416 -144 0
v -432 -144 0
v -432 -128 0
v -416 -128 0
v -400 -144 0
v -416 -144 0
v -416 -128 0
v -400 -128 0
v -384 -144 0
v -400 -144 0
v -400 -128 0
v -384 -128 0
v -368 -144 0
v -384 -144 0
v -384 -128 0
v -368 -128 0
v -432 -160 0
v -448 -160 0
v -448 -144 0
v -432 -144 0
v -336 -160 0
v -352 -160 0
v -352 -144 0
v -336 -144 0
v -448 -224 0
v -464 -224 0
v -464 -208 0
v -448 -208 0
v -448 -240 0
v -464 -240 0
v -464 -224 0
v -448 -224 0
v -464 -256 0
v -480 -256 0
v -480 -240 0
v -464 -240 0
v -464 -272 0
v -480 -272 0
v -480 -256 0
v -464 -256 0
v -464 -288 0
v -480 -288 0
v -480 -272 0
v -464 -272 0
v -464 -304 0
v -480 -304 0
v -480 -288 0
v -464 -288 0
v -480 -320 0
v -496 -320 0
v -496 -304 0
v -480 -304 0
v -480 -336 0
v -496 -336 0
v -496 -320 0
v -480 -320 0
v -512 -352 0
v -528 -352 0
v -528 -336 0
v -512 -336 0
v -496 -352 0
v -512 -352 0
v -512 -336 0
v -496 -336 0

# Texture cooridinates (Count = 36)
vt 0.06227106 0.4726563
vt 0.1208791 0.4726563
vt 0.1208791 0.5351563
vt 0.06227106 0.5351563
vt 0 0.4726563
vt 0.05860806 0.4726563
vt 0.05860806 0.5351563
vt 0 0.5351563
vt 0.3113553 0.40625
vt 0.3699634 0.40625
vt 0.3699634 0.46875
vt 0.3113553 0.46875
vt 0.1245421 0.4023438
vt 0.1245421 0.3398438
vt 0.1831502 0.3398438
vt 0.1831502 0.4023438
vt 0.1245421 0.40625
vt 0.1831502 0.40625
vt 0.1831502 0.46875
vt 0.1245421 0.46875
vt 0.1245421 0.5390625
vt 0.1831502 0.5390625
vt 0.1831502 0.6015625
vt 0.1245421 0.6015625
vt 0 0.5390625
vt 0.05860806 0.5390625
vt 0.05860806 0.6015625
vt 0 0.6015625
vt 0.1831502 0.6679688
vt 0.1245421 0.6679688
vt 0.1245421 0.6054688
vt 0.1831502 0.6054688
vt 0.1868132 0.6054688
vt 0.2454212 0.6054688
vt 0.2454212 0.6679688
vt 0.1868132 0.6679688

# Normal
vn 0 0 -1

# Mesh description
g BarberMapRough_mesh_0005

# Faces
f 1/1/1 2/2/1 3/3/1 4/4/1
f 5/5/1 6/6/1 7/7/1 8/8/1
f 9/9/1 10/10/1 11/11/1 12/12/1
f 13/13/1 14/14/1 15/15/1 16/16/1
f 17/17/1 18/18/1 19/19/1 20/20/1
f 21/21/1 22/22/1 23/23/1 24/24/1
f 25/25/1 26/26/1 27/27/1 28/28/1
f 29/29/1 30/30/1 31/31/1 32/32/1
f 33/25/1 34/26/1 35/27/1 36/28/1
f 37/25/1 38/26/1 39/27/1 40/28/1
f 41/5/1 42/6/1 43/7/1 44/8/1
f 45/14/1 46/15/1 47/16/1 48/13/1
f 49/25/1 50/26/1 51/27/1 52/28/1
f 53/5/1 54/6/1 55/7/1 56/8/1
f 57/33/1 58/34/1 59/35/1 60/36/1
f 61/5/1 62/6/1 63/7/1 64/8/1

