# Tiled2Unity generated file. Do not modify by hand.
# Wavefront file for 'BarberMapRough_mesh_0003.obj'

# Vertices (Count = 12)
v -320 -64 0
v -336 -64 0
v -336 -48 0
v -320 -48 0
v -464 -112 0
v -480 -112 0
v -480 -96 0
v -464 -96 0
v -352 -144 0
v -368 -144 0
v -368 -128 0
v -352 -128 0

# Texture cooridinates (Count = 4)
vt 0.9340659 0.8710938
vt 0.992674 0.8710938
vt 0.992674 0.9335938
vt 0.9340659 0.9335938

# Normal
vn 0 0 -1

# Mesh description
g BarberMapRough_mesh_0003

# Faces
f 1/1/1 2/2/1 3/3/1 4/4/1
f 5/1/1 6/2/1 7/3/1 8/4/1
f 9/1/1 10/2/1 11/3/1 12/4/1

